<svg width="634" height="634" viewBox="0 0 634 634" fill="none" xmlns="http://www.w3.org/2000/svg">
<path d="M560.02 266.45L560.032 266.441L495.416 216.566V115.353H364.287L351.623 105.578C330.428 89.2176 300.863 89.2176 279.667 105.578L267.155 115.353H146.35H138.381L138.381 215.959L73.7645 266.441L73.7767 266.45C66.1027 271.867 61.0764 280.786 61.0764 290.893V297.305V510.57C61.0764 527.094 74.4723 540.49 90.9966 540.49H348.2H542.799C559.324 540.49 572.72 527.094 572.72 510.57V290.893C572.72 280.786 567.694 271.867 560.02 266.45Z" fill="#6060F1"/>
<path d="M351.623 105.577C330.428 89.2171 300.863 89.2171 279.667 105.577L267.155 115.352H364.287L351.623 105.577Z" fill="#3A3AC8"/>
<path d="M495.416 216.566V292.001V301.104V316.923L560.02 266.45L560.032 266.441L495.416 216.566Z" fill="#3A3AC8"/>
<path d="M138.381 268.721V215.959L73.7645 266.441L73.7768 266.45L138.666 316.536C138.49 316.4 138.381 316.316 138.381 316.316V268.721Z" fill="#3A3AC8"/>
<path d="M364.287 115.352H267.155H146.35H138.381V316.316C138.381 316.316 152.501 327.217 171.528 341.906C171.688 342.029 171.852 342.155 172.012 342.279C178.352 347.173 185.222 352.477 192.289 357.932C199.654 363.617 207.226 369.463 214.634 375.181C216.64 376.73 218.635 378.269 220.609 379.793C226.533 384.366 232.276 388.799 237.636 392.936C240.316 395.005 242.901 396.999 245.363 398.9C246.184 399.533 246.991 400.157 247.784 400.769C249.37 401.993 250.898 403.172 252.361 404.301C253.823 405.43 255.221 406.508 256.545 407.53C257.869 408.552 259.121 409.518 260.292 410.421C266.105 414.907 269.929 417.856 270.848 418.563C270.855 418.568 270.867 418.577 270.873 418.582C270.877 418.585 270.881 418.588 270.884 418.591C271.276 418.892 271.666 419.195 272.053 419.499C272.835 420.112 273.607 420.73 274.375 421.349C275.143 421.968 275.907 422.589 276.67 423.208C286.592 431.249 296.476 438.98 315.871 439.542C316.617 439.564 317.377 439.575 318.151 439.575C319.266 439.575 320.38 439.532 321.493 439.469C330.499 439.028 337.712 436.86 343.791 433.853C345.738 432.89 347.572 431.843 349.315 430.743C350.187 430.193 351.036 429.63 351.866 429.058C353.11 428.199 354.309 427.319 355.474 426.432C358.969 423.769 362.154 421.035 365.294 418.582C366.66 417.515 369.669 415.164 373.845 411.901C375.301 410.764 376.895 409.519 378.624 408.168C380.711 406.537 382.982 404.763 385.412 402.865C389.349 399.789 393.687 396.4 398.31 392.788C400.19 391.319 402.109 389.82 404.073 388.286C405.554 387.129 407.051 385.959 408.571 384.772C409.498 384.047 410.432 383.318 411.372 382.584C415.129 379.648 418.976 376.643 422.856 373.611C423.826 372.854 424.798 372.094 425.771 371.333C427.718 369.813 429.67 368.288 431.619 366.764C433.569 365.242 435.516 363.72 437.455 362.205C437.793 361.942 438.128 361.68 438.465 361.416C440.658 359.703 442.837 358.001 444.994 356.316L448.324 353.714C450.109 352.319 451.872 350.942 453.612 349.583C453.899 349.358 454.191 349.131 454.477 348.907C456.451 347.365 458.374 345.862 460.269 344.382C460.888 343.899 461.512 343.411 462.121 342.935C462.231 342.849 462.347 342.759 462.457 342.673C462.517 342.626 462.576 342.58 462.637 342.533C465.149 340.57 467.578 338.672 469.896 336.861C470.723 336.215 471.535 335.581 472.334 334.957C473.063 334.387 473.782 333.825 474.486 333.275C475.043 332.84 475.584 332.417 476.125 331.995C479.642 329.247 482.791 326.787 485.481 324.686L486.703 323.73C490.821 320.514 493.67 318.287 494.824 317.386L495.185 317.104C495.324 316.995 495.416 316.924 495.416 316.924V301.105V292.002V216.566V115.352H364.287Z" fill="#E2F3FE"/>
<path d="M367.372 160.69H185.667V181.942H367.372V160.69Z" fill="#383B4E"/>
<path d="M449.193 193.985H185.667V198.236H449.193V193.985Z" fill="#383B4E"/>
<path d="M449.193 206.028H185.667V210.278H449.193V206.028Z" fill="#383B4E"/>
<path d="M449.193 218.071H185.667V222.321H449.193V218.071Z" fill="#383B4E"/>
<path d="M449.193 230.114H185.667V234.364H449.193V230.114Z" fill="#383B4E"/>
<path d="M360.642 242.156H185.667V246.407H360.642V242.156Z" fill="#383B4E"/>
<path d="M352.377 291.344C335.715 275.417 308.561 273.862 290.167 287.761C271.768 301.664 261.819 327.83 268.03 350.315C271.055 361.266 278.22 370.765 287.834 376.802C297.995 383.181 310.543 385.048 322.192 382.349C325.206 381.65 328.087 380.572 330.904 379.302C332.739 378.475 333.181 375.81 332.241 374.204C331.137 372.316 328.984 372.036 327.142 372.867C317.828 377.065 306.742 377.22 297.296 373.35C288.842 369.886 281.837 363.203 277.756 355.064C268.804 337.213 275.093 313.718 288.16 299.558C294.682 292.49 302.979 287.771 312.487 286.153C321.641 284.595 331.536 286.365 339.576 290.981C354.736 299.685 364.172 319.442 358.466 336.494C357.113 340.539 354.732 344.477 351.267 347.048C349.386 348.445 346.872 349.824 344.465 349.743C342.635 349.681 341.508 348.841 340.639 347.514C338.287 343.921 338.29 339.121 338.309 334.872C338.311 334.412 338.327 333.952 338.332 333.492C339.426 328.243 339.539 322.721 339.168 317.317C339.245 316.466 339.313 315.614 339.4 314.763C339.606 312.758 337.54 311.036 335.674 311.036C334.749 311.036 333.988 311.356 333.389 311.862C326.702 307.471 317.981 306.988 310.63 310.367C302.599 314.059 297.035 322.418 295.645 331.017C294.154 340.241 297.087 350.843 306.302 354.843C314.972 358.608 325.039 355.551 331.124 348.577C331.552 348.086 331.951 347.582 332.34 347.073C332.625 347.959 332.945 348.837 333.345 349.695C335.59 354.512 340.386 357.669 345.782 357.116C351.226 356.559 356.358 353.285 359.81 349.123C373.971 332.053 367.285 305.595 352.377 291.344ZM330.887 333.03C330.312 335.38 329.476 337.661 328.258 339.814C325.033 345.518 319.122 349.983 312.258 348.928C305.5 347.89 302.531 341.557 302.67 335.27C302.811 328.886 306.016 322.133 311.374 318.5C317.215 314.54 325.607 314.361 330.961 319.315C331.135 319.477 331.315 319.605 331.497 319.72C331.146 324.149 330.949 328.587 330.887 333.03Z" fill="#383B4E"/>
<path d="M350.724 439.574L554.036 529.768L466.194 475.929L350.724 439.574Z" fill="#3A3AC8"/>
<path d="M202.823 475.18C200.024 473.164 268.928 445.957 266.18 443.874L276.52 439.574L264.619 443.407C252.349 441.945 183.326 460.315 178.344 456.126C154.605 436.169 133.171 413.537 114.764 388.525C93.7913 360.027 76.7934 328.95 61.0767 297.304V510.569C61.0767 527.094 74.4725 540.489 90.9969 540.489H348.2C296.279 527.434 246.464 506.604 202.823 475.18Z" fill="#6060F1"/>
<path d="M422.982 395.88L554.036 277.463L365.294 427.758L422.982 395.88Z" fill="#7979F4"/>
<path d="M209.865 395.88L267.552 427.758L78.8105 277.463L209.865 395.88Z" fill="#7979F4"/>
<path d="M483.196 256.325V123.499H342.932L464.069 141.563L483.196 256.325Z" fill="white"/>
<path d="M171.528 341.905C171.688 342.029 171.852 342.155 172.012 342.279C178.352 347.173 185.222 352.477 192.289 357.932C199.654 363.617 207.226 369.462 214.634 375.18C216.64 376.73 218.635 378.269 220.609 379.793C226.533 384.365 232.276 388.799 237.636 392.936C240.316 395.005 242.901 396.999 245.363 398.9C246.184 399.533 246.991 400.156 247.784 400.768C249.37 401.992 250.898 403.171 252.361 404.3C253.823 405.429 255.221 406.508 256.545 407.53C257.869 408.552 259.121 409.517 260.292 410.421C266.105 414.907 269.929 417.856 270.848 418.563C270.855 418.568 270.867 418.577 270.873 418.582C270.877 418.585 270.881 418.588 270.884 418.59C271.276 418.892 271.666 419.194 272.053 419.498C272.835 420.112 273.607 420.73 274.375 421.349C275.143 421.968 275.907 422.588 276.67 423.207C286.592 431.249 296.476 438.98 315.871 439.542C316.617 439.563 317.377 439.574 318.151 439.574C319.266 439.574 320.38 439.531 321.493 439.468C330.499 439.028 337.712 436.86 343.791 433.853C345.738 432.89 347.572 431.842 349.315 430.743C350.187 430.193 351.036 429.63 351.866 429.057C353.11 428.199 354.309 427.319 355.474 426.431C358.969 423.769 362.154 421.035 365.294 418.582C366.66 417.515 369.669 415.164 373.845 411.901C375.301 410.764 376.895 409.519 378.624 408.168C380.711 406.537 382.982 404.763 385.412 402.865C389.349 399.789 393.687 396.4 398.31 392.788C400.19 391.319 402.109 389.82 404.073 388.286C405.554 387.128 407.051 385.959 408.571 384.771C409.498 384.047 410.432 383.317 411.372 382.583C415.129 379.648 418.976 376.643 422.856 373.611C423.826 372.853 424.798 372.094 425.771 371.333C427.718 369.812 429.67 368.287 431.619 366.764C433.569 365.241 435.516 363.719 437.455 362.205C437.793 361.941 438.128 361.679 438.465 361.416C440.658 359.703 442.837 358.001 444.994 356.316L448.324 353.714C450.109 352.319 451.872 350.942 453.612 349.583C453.899 349.358 454.191 349.131 454.477 348.907C456.451 347.365 458.374 345.862 460.269 344.381C460.888 343.898 461.512 343.41 462.121 342.935C462.231 342.849 462.347 342.759 462.457 342.673C462.517 342.626 462.576 342.58 462.637 342.533C465.149 340.569 467.578 338.672 469.896 336.861C470.723 336.215 471.535 335.58 472.334 334.957C473.063 334.387 473.782 333.825 474.486 333.275C475.043 332.84 475.584 332.417 476.125 331.994C479.642 329.247 482.791 326.786 485.481 324.685L486.703 323.73C490.821 320.514 493.67 318.287 494.824 317.385L495.185 317.104C495.324 316.995 495.416 316.924 495.416 316.924V301.104C468.587 322.065 382.67 389.188 373.264 396.537C362.099 405.26 350.37 417.53 326.121 417.53C301.332 417.53 291.508 406.27 278.843 396.537C273.184 392.189 146.35 294.271 146.35 294.271V115.352H138.381V316.316C138.381 316.316 152.501 327.217 171.528 341.905Z" fill="#A1DAF8"/>
<path d="M495.416 292.001V301.104V316.923L560.02 266.45L560.032 266.441L543.986 254.055L495.416 292.001Z" fill="#3A3AC8"/>
<path d="M138.381 316.316V268.721L104.41 242.499L73.7645 266.441L73.7768 266.45L138.666 316.536C138.49 316.4 138.381 316.316 138.381 316.316Z" fill="#3A3AC8"/>
<path d="M69.843 525.517L266.18 443.874L276.52 439.574L264.619 443.407L165.832 475.221L69.843 525.517Z" fill="#3A3AC8"/>
</svg>
